<svg width="248" height="152" viewBox="0 0 248 152" fill="none" xmlns="http://www.w3.org/2000/svg">
<g clip-path="url(#clip0)">
<path d="M113.178 30.7182C112.908 29.842 112.249 29.1732 111.417 28.9404C108.556 28.1323 106.16 26.0629 104.841 23.2536C104.616 22.7795 104.374 22.3219 104.105 21.8757C102.96 19.9816 101.263 18.5538 99.2727 17.7924C97.4239 17.0853 96.1386 16.0147 94.9445 14.9675C94.8162 12.4578 94.2949 5.50545 92.3048 0.749082C92.149 0.37615 91.8197 0.106291 91.4309 0.025588C91.0322 -0.0568139 90.625 0.0649483 90.3325 0.343869C88.3968 2.23316 84.7278 6.60811 83.016 13.5534C75.458 17.01 73.1929 24.3809 73.1929 29.4784C73.1929 31.0613 73.5214 32.5599 73.9937 33.9986C70.2186 35.76 66.6082 39.5091 63.2096 45.5148L45.7489 66.5188L45.7582 66.523C39.1375 72.5749 34.7087 83.4063 34.7087 95.8037C34.7087 98.3916 34.9381 100.75 35.2986 102.962C35.2216 103.072 35.1032 103.136 35.0335 103.255C29.3288 112.69 29.9688 111.65 28.6286 114.527C25.9555 121.674 27.4463 129.251 31.6253 133.595C37.3312 139.527 43.4575 140.683 45.6812 140.55C50.2113 140.627 49.3649 140.627 73.4721 132.502C75.0684 131.964 75.9793 130.265 75.5211 128.628C75.0553 126.936 73.2929 125.947 71.601 126.42C47.3072 133.229 48.0057 133.425 44.0564 132.382C43.7174 132.266 31.1502 126.606 39.5951 114.223C43.6444 120.221 49.8446 123.254 56.908 123.502V123.584H82.4766C84.4939 123.584 86.1363 122.236 86.1363 120.574C86.1363 117.933 84.7 115.431 82.2243 113.758C81.0721 112.976 79.7358 112.434 78.331 112.106C80.1385 108.961 81.3878 105.14 81.9094 100.629L88.8637 122.36C89.1152 123.093 89.8067 123.584 90.5803 123.584H102.49C104.814 123.584 106.699 122.234 106.699 120.576C106.699 117.933 105.048 115.435 102.197 113.758C100.518 112.768 98.5141 112.175 96.4133 111.921L93.3989 100.738L91.9344 75.9233C97.6994 69.852 101.286 63.0301 98.8848 50.1981C97.7677 44.2598 101.895 41.5235 102.664 41.0679C103.359 40.8278 104.054 40.5619 104.75 40.3518C105.83 40.025 106.92 39.5603 107.957 38.8564C108.585 38.4277 110.826 36.8105 112.711 33.2488C113.131 32.4497 113.439 31.59 113.178 30.7182Z" fill="black"/>
</g>
<path d="M70.568 124.288C68.312 124.288 66.5 123.58 65.132 122.164C63.788 120.748 63.116 118.804 63.116 116.332V102.076C63.116 99.004 63.728 96.688 64.952 95.128C66.176 93.568 68.096 92.788 70.712 92.788C72.992 92.788 74.828 93.412 76.22 94.66C77.612 95.908 78.308 97.708 78.308 100.06V105.388H72.152V100.816C72.152 99.928 72.044 99.316 71.828 98.98C71.612 98.644 71.24 98.476 70.712 98.476C70.16 98.476 69.776 98.668 69.56 99.052C69.368 99.436 69.272 100 69.272 100.744V116.26C69.272 117.076 69.392 117.676 69.632 118.06C69.872 118.42 70.232 118.6 70.712 118.6C71.672 118.6 72.152 117.82 72.152 116.26V110.68H78.38V116.512C78.38 121.696 75.776 124.288 70.568 124.288ZM79.5908 124L82.5788 93.076H93.0548L96.0068 124H90.1388L89.7068 118.996H85.9628L85.6028 124H79.5908ZM86.4308 114.064H89.2388L87.8708 98.332H87.5828L86.4308 114.064ZM100.555 124V99.016H96.8834V93.076H110.419V99.016H106.747V124H100.555Z" fill="white"/>
<path d="M111.769 124V118.744H118.069V124H111.769ZM126.582 114.982V124H121.309V98.4062H131.293C133.215 98.4062 134.902 98.7578 136.355 99.4609C137.82 100.164 138.945 101.166 139.73 102.467C140.516 103.756 140.908 105.227 140.908 106.879C140.908 109.387 140.047 111.367 138.324 112.82C136.613 114.262 134.24 114.982 131.205 114.982H126.582ZM126.582 110.711H131.293C132.688 110.711 133.748 110.383 134.475 109.727C135.213 109.07 135.582 108.133 135.582 106.914C135.582 105.66 135.213 104.646 134.475 103.873C133.736 103.1 132.717 102.701 131.416 102.678H126.582V110.711ZM149.17 107.055C150.518 105.438 152.211 104.629 154.25 104.629C158.375 104.629 160.467 107.025 160.525 111.818V124H155.445V111.959C155.445 110.869 155.211 110.066 154.742 109.551C154.273 109.023 153.494 108.76 152.404 108.76C150.916 108.76 149.838 109.334 149.17 110.482V124H144.09V97H149.17V107.055ZM163.566 114.314C163.566 112.428 163.93 110.746 164.656 109.27C165.383 107.793 166.426 106.65 167.785 105.842C169.156 105.033 170.744 104.629 172.549 104.629C175.115 104.629 177.207 105.414 178.824 106.984C180.453 108.555 181.361 110.688 181.549 113.383L181.584 114.684C181.584 117.602 180.77 119.945 179.141 121.715C177.512 123.473 175.326 124.352 172.584 124.352C169.842 124.352 167.65 123.473 166.01 121.715C164.381 119.957 163.566 117.566 163.566 114.543V114.314ZM168.646 114.684C168.646 116.488 168.986 117.871 169.666 118.832C170.346 119.781 171.318 120.256 172.584 120.256C173.814 120.256 174.775 119.787 175.467 118.85C176.158 117.9 176.504 116.389 176.504 114.314C176.504 112.545 176.158 111.174 175.467 110.201C174.775 109.229 173.803 108.742 172.549 108.742C171.307 108.742 170.346 109.229 169.666 110.201C168.986 111.162 168.646 112.656 168.646 114.684ZM190.795 100.305V104.98H194.047V108.707H190.795V118.199C190.795 118.902 190.93 119.406 191.199 119.711C191.469 120.016 191.984 120.168 192.746 120.168C193.309 120.168 193.807 120.127 194.24 120.045V123.895C193.244 124.199 192.219 124.352 191.164 124.352C187.602 124.352 185.785 122.553 185.715 118.955V108.707H182.938V104.98H185.715V100.305H190.795ZM195.559 114.314C195.559 112.428 195.922 110.746 196.648 109.27C197.375 107.793 198.418 106.65 199.777 105.842C201.148 105.033 202.736 104.629 204.541 104.629C207.107 104.629 209.199 105.414 210.816 106.984C212.445 108.555 213.354 110.688 213.541 113.383L213.576 114.684C213.576 117.602 212.762 119.945 211.133 121.715C209.504 123.473 207.318 124.352 204.576 124.352C201.834 124.352 199.643 123.473 198.002 121.715C196.373 119.957 195.559 117.566 195.559 114.543V114.314ZM200.639 114.684C200.639 116.488 200.979 117.871 201.658 118.832C202.338 119.781 203.311 120.256 204.576 120.256C205.807 120.256 206.768 119.787 207.459 118.85C208.15 117.9 208.496 116.389 208.496 114.314C208.496 112.545 208.15 111.174 207.459 110.201C206.768 109.229 205.795 108.742 204.541 108.742C203.299 108.742 202.338 109.229 201.658 110.201C200.979 111.162 200.639 112.656 200.639 114.684Z" fill="black"/>
<defs>
<clipPath id="clip0">
<rect width="140.563" height="140.563" fill="white"/>
</clipPath>
</defs>
</svg>
